PathFileType	4	(X/Y/Z)	data/BAA/BAA01/Baseline/Walk05.trc
DataRate	CameraRate	NumFrames	NumMarkers	Units	OrigDataRate	OrigDataStartFrame	OrigNumFrames
200.0	200.0	16	15	mm	200.0	708	945
Frame#	Time	RASI			SPL6			LKNE			RHIP			LASI			RKNE			RTOE			LTOE			TAIL			LHIP			LANK			RANK			*12			*13			*14			
		X1	Y1	Z1	X2	Y2	Z2	X3	Y3	Z3	X4	Y4	Z4	X5	Y5	Z5	X6	Y6	Z6	X7	Y7	Z7	X8	Y8	Z8	X9	Y9	Z9	X10	Y10	Z10	X11	Y11	Z11	X12	Y12	Z12	X13	Y13	Z13	X14	Y14	Z14	X15	Y15	Z15	

709	3.54	241.6839447021484	64.91953277587891	10.25943374633789	242.9062805175781	71.00431823730469	-12.23880863189697	250.9072875976562	26.62570190429688	-27.05452156066895	225.3334655761719	56.1600341796875	7.07279634475708	246.9957427978516	55.44733428955078	-29.11849212646484	nan	nan	nan	218.4117279052734	24.89204597473145	23.67292213439941	236.9772186279297	7.171957015991211	-19.97593879699707	216.6119384765625	52.00662231445312	-12.21776390075684	227.8723754882812	47.40408325195312	-26.27116775512695	nan	nan	nan	212.0959014892578	37.10785293579102	17.75043296813965	nan	nan	nan	nan	nan	nan	nan	nan	nan	
710	3.545	243.8317108154297	64.81947326660156	9.943819999694824	244.6885070800781	71.21707916259766	-12.20976448059082	252.2000122070312	26.69583129882812	-27.29092025756836	227.2666015625	56.2552375793457	7.358570098876953	248.5754089355469	55.5465202331543	-28.92953872680664	nan	nan	nan	223.4811706542969	24.68819427490234	24.09014701843262	237.6716613769531	7.841810703277588	-20.34432411193848	218.3342590332031	52.64877700805664	-11.56264209747314	229.2554931640625	48.0312385559082	-26.45617294311523	nan	nan	nan	214.969482421875	36.28464508056641	19.05300140380859	nan	nan	nan	nan	nan	nan	nan	nan	nan	
711	3.55	245.8936462402344	65.31776428222656	10.18747138977051	246.4751586914062	71.49014282226562	-12.13324737548828	253.4708251953125	26.73581123352051	-27.4589786529541	229.2334442138672	56.40158843994141	7.69478702545166	250.3275146484375	56.0287971496582	-28.87244415283203	nan	nan	nan	228.3884887695312	24.61887741088867	24.24951934814453	237.4190521240234	5.977563858032227	-17.89309310913086	219.9042510986328	52.9481086730957	-11.5761079788208	230.9017791748047	48.16417694091797	-25.81902122497559	nan	nan	nan	nan	nan	nan	nan	nan	nan	nan	nan	nan	nan	nan	nan	
712	3.555	247.9383697509766	65.5103759765625	10.11950588226318	248.2663116455078	71.81376647949219	-12.03257942199707	254.7642517089844	26.94114685058594	-27.76660346984863	230.9865570068359	56.77964401245117	8.304367065429688	251.7787475585938	55.93077087402344	-28.26024627685547	nan	nan	nan	233.1821899414062	24.34018516540527	24.44267463684082	237.6212921142578	6.222359180450439	-17.81867218017578	221.7186737060547	53.56813049316406	-10.79428863525391	232.4177398681641	48.62483978271484	-25.54994201660156	nan	nan	nan	221.6297607421875	32.6413459777832	19.88381195068359	nan	nan	nan	nan	nan	nan	nan	nan	nan	
713	3.56	250.1565856933594	65.54789733886719	9.740682601928711	250.0682830810547	72.16828918457031	-11.94087982177734	255.9720306396484	26.56333351135254	-27.28795623779297	232.9836578369141	57.0627555847168	8.734981536865234	252.77001953125	56.57857131958008	-29.07987022399902	nan	nan	nan	238.47314453125	23.02392196655273	23.75165939331055	237.8397521972656	6.494123935699463	-17.77167510986328	223.3666839599609	53.80546951293945	-10.59351539611816	233.9431762695312	49.09405517578125	-25.23188972473145	nan	nan	nan	nan	nan	nan	nan	nan	nan	nan	nan	nan	nan	nan	nan	
714	3.565	251.9928131103516	66.49386596679688	10.56115627288818	251.920654296875	72.56449127197266	-11.84464073181152	257.3418884277344	27.43314743041992	-28.21865081787109	235.3026428222656	57.14777374267578	8.746071815490723	254.3503112792969	56.95566940307617	-28.94821929931641	nan	nan	nan	242.5836029052734	22.75207138061523	24.21534729003906	238.0630950927734	6.757166385650635	-17.73239898681641	225.2587738037109	54.48617935180664	-9.794980049133301	235.5060882568359	49.57999801635742	-24.89678192138672	nan	nan	nan	nan	nan	nan	256.7503356933594	39.16361618041992	25.4637279510498	228.7052307128906	17.81671142578125	-17.2008171081543	nan	nan	nan	
715	3.57	254.2481079101562	67.31606292724609	10.7877950668335	253.8048858642578	72.96745300292969	-11.76751804351807	258.5999450683594	27.07332992553711	-27.59896659851074	237.2064971923828	57.71878433227539	9.385379791259766	nan	nan	nan	nan	nan	nan	247.6052398681641	22.26229286193848	24.68584632873535	238.3142547607422	6.994407653808594	-17.71478080749512	227.0060119628906	54.81243133544922	-9.562366485595703	237.1160736083984	50.01440048217773	-24.50966644287109	nan	nan	nan	nan	nan	nan	nan	nan	nan	nan	nan	nan	256.5222778320312	57.15397644042969	-28.02451324462891	
716	3.575	256.2135925292969	67.98361206054688	11.05352020263672	255.7451324462891	73.37265777587891	-11.70824146270752	260.0462036132812	27.97366905212402	-28.44266510009766	239.396484375	58.14801025390625	9.741067886352539	nan	nan	nan	nan	nan	nan	252.3914489746094	21.25404739379883	24.70892333984375	238.5699157714844	7.244126796722412	-17.69374465942383	229.3707122802734	55.26335906982422	-8.670858383178711	238.7795104980469	50.53167724609375	-24.20237922668457	nan	nan	nan	nan	nan	nan	262.1177368164062	39.92734527587891	24.89731216430664	nan	nan	nan	258.229248046875	57.78469467163086	-28.21860694885254	
717	3.58	258.3820190429688	68.59767913818359	11.15245342254639	257.7181396484375	73.77216339111328	-11.67837619781494	261.4352722167969	27.69230651855469	-27.7567195892334	241.8511352539062	58.43935775756836	9.823811531066895	nan	nan	nan	nan	nan	nan	257.9385070800781	20.99287414550781	24.36682319641113	238.8787384033203	7.453416347503662	-17.64551162719727	231.3451385498047	55.80825424194336	-8.176263809204102	240.5058746337891	50.96027374267578	-23.83217239379883	nan	nan	nan	nan	nan	nan	264.8121948242188	40.42173385620117	24.65014457702637	nan	nan	nan	259.8731384277344	57.88127136230469	-27.89366722106934	
718	3.585	260.7815551757812	69.19567108154297	11.20335578918457	259.739501953125	74.15827178955078	-11.68859577178955	262.99169921875	28.36566352844238	-28.28073310852051	243.9697570800781	59.00868606567383	10.31664657592773	nan	nan	nan	nan	nan	nan	263.0451354980469	19.93196678161621	23.65631294250488	239.1636810302734	7.684347629547119	-17.60811996459961	233.3530578613281	56.34082794189453	-7.658955097198486	242.1680755615234	51.63820648193359	-23.81649589538574	nan	nan	nan	nan	nan	nan	267.47021484375	40.5152587890625	23.65725326538086	232.1021270751953	19.97577476501465	-16.64980506896973	261.6174011230469	57.37907791137695	-27.12454986572266	
719	3.59	263.1408081054688	69.87833404541016	11.15534019470215	261.7763977050781	74.53680419921875	-11.67833423614502	264.547607421875	28.61165809631348	-28.2083625793457	246.1682586669922	59.77896881103516	10.79618740081787	nan	nan	nan	nan	nan	nan	268.304931640625	19.35384941101074	23.16800880432129	239.4963226318359	7.876149654388428	-17.56691551208496	234.9530029296875	56.89666366577148	-7.604537963867188	244.0974731445312	51.81430053710938	-23.10544204711914	nan	nan	nan	nan	nan	nan	270.1078186035156	41.33559036254883	23.81367492675781	nan	nan	nan	263.3379821777344	58.52709579467773	-27.84819984436035	
720	3.595	265.1561889648438	70.63319396972656	11.54652786254883	263.9224853515625	74.89427947998047	-11.71874904632568	266.1126708984375	28.85912895202637	-28.11845397949219	248.4551849365234	60.41957092285156	11.1776876449585	nan	nan	nan	nan	nan	nan	273.6854553222656	19.09375	22.69441413879395	239.8667297363281	8.057303428649902	-17.50289916992188	237.1126098632812	57.39118194580078	-6.986938953399658	245.6859588623047	52.5312385559082	-23.27007102966309	nan	nan	nan	nan	nan	nan	272.7634582519531	41.85182952880859	23.32525253295898	233.9090728759766	21.43915748596191	-15.96460342407227	265.084228515625	58.2714729309082	-27.25125503540039	
721	3.6	267.6505432128906	71.21237945556641	11.55058193206787	266.034423828125	75.21060180664062	-11.71158218383789	267.699951171875	29.18076705932617	-28.11825370788574	250.917724609375	60.66355514526367	11.10244560241699	nan	nan	nan	nan	nan	nan	278.8995971679688	18.52437400817871	22.14067840576172	240.2123413085938	8.301361083984375	-17.48917579650879	239.1776733398438	57.93034362792969	-6.727119922637939	247.8741149902344	52.55966567993164	-22.31768417358398	nan	nan	nan	nan	nan	nan	275.4320373535156	42.04220199584961	22.47708511352539	nan	nan	nan	267.1363525390625	59.08400344848633	-27.64446067810059	
722	3.605	270.1042175292969	71.7025146484375	11.3585147857666	268.2264404296875	75.55668640136719	-11.70809936523438	269.3118896484375	29.39615249633789	-27.97824287414551	253.1414489746094	61.47654724121094	11.75913429260254	nan	nan	nan	nan	nan	nan	284.0097351074219	17.93991661071777	21.70484352111816	240.6037292480469	8.372988700866699	-17.24071884155273	241.4149932861328	58.46159362792969	-6.189444065093994	249.8190612792969	52.95697784423828	-21.90292930603027	nan	nan	nan	nan	nan	nan	278.0798645019531	42.7747688293457	22.47640609741211	235.7726440429688	22.35051918029785	-16.06909561157227	268.9762878417969	58.81949615478516	-26.99227905273438	
723	3.61	272.4530639648438	72.30966186523438	11.45418262481689	270.4866943359375	75.9044189453125	-11.67416858673096	270.9278869628906	29.67500114440918	-27.9116382598877	255.6498565673828	62.01036071777344	12.06269359588623	nan	nan	nan	nan	nan	nan	288.8798522949219	17.31734466552734	21.42874145507812	240.9762573242188	8.738515853881836	-17.46019172668457	243.7836151123047	59.16582107543945	-5.406796932220459	251.8316192626953	53.38835144042969	-21.53227424621582	nan	nan	nan	nan	nan	nan	280.8056945800781	43.15243911743164	21.93804168701172	236.9188995361328	22.24435043334961	-15.17976474761963	270.7897644042969	58.95990371704102	-26.79006958007812	
724	3.615	274.944091796875	72.61319732666016	11.55162620544434	272.7871398925781	76.25679779052734	-11.58953666687012	272.5459594726562	29.9456787109375	-27.88286018371582	258.3488464355469	62.21973419189453	12.0916748046875	nan	nan	nan	nan	nan	nan	293.3392028808594	16.42971801757812	21.08068656921387	241.3695526123047	8.812880516052246	-17.25358963012695	246.0091094970703	59.39130020141602	-5.141200542449951	253.6937561035156	54.09651184082031	-21.55654525756836	nan	nan	nan	nan	nan	nan	283.6045532226562	43.48583602905273	21.69392776489258	238.06591796875	23.07368087768555	-15.17415332794189	272.7657775878906	59.41344451904297	-26.82510757446289	
